<?xml version="1.0" encoding="utf-8"?>
<!-- Generator: Adobe Illustrator 22.0.1, SVG Export Plug-In . SVG Version: 6.00 Build 0)  -->
<svg version="1.1" id="Capa_1" xmlns="http://www.w3.org/2000/svg" xmlns:xlink="http://www.w3.org/1999/xlink" x="0px" y="0px"
	 viewBox="0 0 391.3 391.3" style="enable-background:new 0 0 391.3 391.3;" xml:space="preserve">
<style type="text/css">
	.st0{fill:#00DFDB;}
</style>
<g>
	<g>
		<path class="st0" d="M263.7,307.8c0-5.5,4.5-10,10-10h82.2c39.2-80.9,45.6-143.7,20.4-187.4C340.7,48.8,235,51.7,235,51.7
			c-95.4,0-155.6,66.7-155.6,66.7C48.6,151,17.4,212.8,3.7,254.3c0,0-2.3,7.2-2.9,9.6c-0.4,1.8-0.8,3.7-0.8,5.6v50
			c0,5.3,2.1,10.4,5.9,14.1c3.8,3.8,8.8,5.9,14.1,5.9h0l302.2,0c7.3,0,14-4.3,17.5-10.6c2.1-3.8,4.1-7.5,6-11.1h-72
			C268.2,317.8,263.7,313.3,263.7,307.8z M196.8,191.5c-12.8,7.6-42.4,15.4-68.6,22.3c-12.1,3.2-23.5,6.2-33.4,9.2
			c-16.2,4.9-33.9,9.5-52.6,13.7c18.2-44.3,44.7-85.1,69.1-106.4c0,0,100.5,0,109.5,0s15,3.8,15,11.1
			C235.7,159.3,222.6,176.2,196.8,191.5z"/>
		<path class="st0" d="M211.7,138.8c-5.5,0-10,4.5-10,10c0,5.5,4.5,10,10,10c5.5,0,10-4.5,10-10S217.3,138.8,211.7,138.8z"/>
	</g>
</g>
</svg>
