<?xml version="1.0" encoding="utf-8"?>
<!-- Generator: Adobe Illustrator 22.0.1, SVG Export Plug-In . SVG Version: 6.00 Build 0)  -->
<svg version="1.1" id="Layer_1" xmlns="http://www.w3.org/2000/svg" xmlns:xlink="http://www.w3.org/1999/xlink" x="0px" y="0px"
	 viewBox="0 0 20 20" style="enable-background:new 0 0 20 20;" xml:space="preserve">
<style type="text/css">
	.st0{fill:#00DFDB;}
</style>
<path class="st0" d="M10,20C4.5,20,0,15.5,0,10S4.5,0,10,0s10,4.5,10,10S15.5,20,10,20z M17.8,12c0.3-1.3,0.3-2.7,0-4h-3.8
	c0.1,1.3,0.1,2.7,0,4H17.8z M16.9,14h-3.2c-0.2,1.2-0.5,2.4-0.9,3.5C14.5,16.9,16,15.6,16.9,14z M8.1,12h3.8c0.1-1.3,0.1-2.7,0-4
	H8.1C8,9.3,8,10.7,8.1,12z M8.3,14c0.4,2.4,1.1,4,1.7,4s1.3-1.6,1.7-4H8.3z M2.3,12h3.8C6,10.7,6,9.3,6.1,8H2.3
	C1.9,9.3,1.9,10.7,2.3,12z M3.1,14c0.9,1.6,2.4,2.9,4.2,3.5c-0.4-1-0.7-2.2-0.9-3.5H3.1z M16.9,6c-0.9-1.6-2.4-2.9-4.2-3.5
	c0.4,1,0.7,2.2,0.9,3.5H16.9z M8.3,6h3.3c-0.4-2.4-1.1-4-1.7-4S8.7,3.6,8.3,6z M3.1,6h3.2c0.2-1.3,0.5-2.5,0.9-3.5
	C5.5,3.1,4,4.4,3.1,6z"/>
</svg>
