<?xml version="1.0" encoding="utf-8"?>
<!-- Generator: Adobe Illustrator 22.0.1, SVG Export Plug-In . SVG Version: 6.00 Build 0)  -->
<svg version="1.1" id="Layer_1" xmlns="http://www.w3.org/2000/svg" xmlns:xlink="http://www.w3.org/1999/xlink" x="0px" y="0px"
	 viewBox="0 0 64 64" style="enable-background:new 0 0 64 64;" xml:space="preserve">
<style type="text/css">
	.st0{fill:#00DFDB;}
</style>
<title>whatsapp</title>
<path class="st0" d="M54.6,9.3c-6-6-14-9.3-22.4-9.3C14.6,0,0.4,14.2,0.4,31.7c0,5.6,1.5,11.1,4.2,15.9L0.2,64L17,59.6
	c4.6,2.5,9.9,3.9,15.2,3.9h0l0,0c17.5,0,31.7-14.2,31.7-31.7C63.8,23.3,60.5,15.3,54.6,9.3L54.6,9.3z M32.1,58.1L32.1,58.1
	c-4.7,0-9.4-1.3-13.4-3.7l-1-0.6l-10,2.6l2.7-9.7l-0.6-1c-2.7-4.2-4-9-4-14c0-14.5,11.8-26.4,26.4-26.4c7,0,13.7,2.8,18.6,7.7
	c5,5,7.7,11.6,7.7,18.6C58.5,46.3,46.7,58.1,32.1,58.1L32.1,58.1z M46.6,38.3c-0.8-0.4-4.7-2.3-5.4-2.6s-1.3-0.4-1.8,0.4
	c-0.5,0.8-2,2.6-2.5,3.1c-0.5,0.5-0.9,0.6-1.7,0.2s-3.4-1.2-6.4-3.9c-2.4-2.1-4-4.7-4.4-5.5s0-1.2,0.4-1.6c0.4-0.4,0.8-0.9,1.2-1.4
	s0.5-0.8,0.8-1.3c0.3-0.5,0.1-1-0.1-1.4s-1.8-4.3-2.4-5.9c-0.6-1.5-1.3-1.3-1.8-1.4c-0.5,0-1,0-1.5,0s-1.4,0.2-2.1,1
	c-0.7,0.8-2.8,2.7-2.8,6.6s2.8,7.7,3.2,8.2c0.4,0.5,5.6,8.5,13.5,12c1.9,0.8,3.4,1.3,4.5,1.7c1.9,0.6,3.6,0.5,5,0.3
	c1.5-0.2,4.7-1.9,5.3-3.8s0.7-3.4,0.5-3.8C47.9,38.9,47.4,38.7,46.6,38.3L46.6,38.3z"/>
</svg>
